<?xml version="1.0" ?><svg id="icons" viewBox="0 0 340 340" xmlns="http://www.w3.org/2000/svg"><title/><path d="M67.349,324.688a8.489,8.489,0,0,1-7.16-3.909c-11.739-18.285-15.636-35.886-11.582-52.315,5.88-23.832,26.55-35.8,27.427-36.3.057-.032.114-.064.173-.095q1.653-.888,3.17-1.8l5.007,16.706c-.314.188-5.013,3.7-5.013,3.7-4.84,4.108-11.768,11.549-14.3,22.024-2.82,11.674.349,24.76,9.423,38.894a8.5,8.5,0,0,1-7.145,13.092Z" style="fill:#8c87af"/><path d="M108.914,185.214a8.5,8.5,0,0,0-6.971,9.793c.035.2,3,19.893-22.571,35.255V250.68a41.268,41.268,0,0,1,5.012-3.7c39.47-21.283,34.552-53.432,34.323-54.791A8.5,8.5,0,0,0,108.914,185.214Z" style="fill:#3d4165"/><path d="M257.49,324.689a8.5,8.5,0,0,1-3.939-16.038C266.3,302,273.689,292.7,275.513,281.018c2.625-16.817-6.374-37.534-24.072-55.415-30.221-30.537-39.24-70.148-39.609-71.82a8.5,8.5,0,0,1,16.6-3.676c.11.485,8.475,36.64,35.1,63.537,21.478,21.7,32.239,47.869,28.785,70-2.664,17.069-13.348,30.929-30.9,40.085A8.462,8.462,0,0,1,257.49,324.689Z" style="fill:#3d4165"/><rect height="213.023" style="fill:#d7dbff" width="146.85" x="93.301" y="61.052"/><rect height="213.023" style="fill:#a3abea" width="36.988" x="93.301" y="61.052"/><path d="M93.3,61.052V167.564H72.57a10.235,10.235,0,0,1-10.235-10.235V71.288A10.235,10.235,0,0,1,72.57,61.052Z" style="fill:#3d4165"/><path d="M152.256,123.261l-1.4-26.967a10.465,10.465,0,0,1,2.68-7.632c4.295-4.749,13.789-11.991,31.211-10.942l-6.28,9.131a49.27,49.27,0,0,1,6.28,4.768l-6.327,5.263-1.7,26.379Z" style="fill:#3d4165"/><path d="M181.226,134.957h-8.294v-11.7H157.38v11.7h-8.294A10.856,10.856,0,0,0,141,138.564a158.061,158.061,0,0,0-19.862,27.8,11.587,11.587,0,0,0,1.619,13.548,104.115,104.115,0,0,0,20.408,16.636,12.569,12.569,0,0,0,6.712,1.926h30.554a12.566,12.566,0,0,0,6.711-1.926,104.1,104.1,0,0,0,20.409-16.636,11.586,11.586,0,0,0,1.618-13.548,158.015,158.015,0,0,0-19.861-27.8A10.856,10.856,0,0,0,181.226,134.957Z" style="fill:#3d4165"/><path d="M187.14,216.123H147.969a3.5,3.5,0,0,1,0-7H187.14a3.5,3.5,0,0,1,0,7Z" style="fill:#3d4165"/><path d="M188.14,230.276H146.969a3.5,3.5,0,0,1,0-7H188.14a3.5,3.5,0,0,1,0,7Z" style="fill:#7f87a8"/><path d="M190.14,244.43H175.787a3.5,3.5,0,1,1,0-7H190.14a3.5,3.5,0,0,1,0,7Z" style="fill:#a0aac8"/><path d="M158.88,244.43H144.969a3.5,3.5,0,0,1,0-7H158.88a3.5,3.5,0,0,1,0,7Z" style="fill:#a0aac8"/><path d="M194.14,261H179.245a3.5,3.5,0,0,1,0-7H194.14a3.5,3.5,0,0,1,0,7Z" style="fill:#c1cdea"/><path d="M157.38,261H141.969a3.5,3.5,0,0,1,0-7H157.38a3.5,3.5,0,0,1,0,7Z" style="fill:#c1cdea"/><circle cx="77.818" cy="114.308" r="3.981" style="fill:#fff"/><circle cx="77.818" cy="88.69" r="3.981" style="fill:#f74f87"/><circle cx="77.818" cy="139.927" r="3.981" style="fill:#fff"/><path d="M145.016,160.252v16.813a1.171,1.171,0,0,1-2.021.805l-6.882-7.266a1.17,1.17,0,0,1-.1-1.49l6.882-9.546A1.171,1.171,0,0,1,145.016,160.252Z" style="fill:#d7dbff"/><path d="M185.3,160.252v16.813a1.171,1.171,0,0,0,2.021.805L194.2,170.6a1.17,1.17,0,0,0,.1-1.49l-6.882-9.546A1.171,1.171,0,0,0,185.3,160.252Z" style="fill:#d7dbff"/><rect height="55.9" rx="5.862" style="fill:#fff" width="11.724" x="214.353" y="84.709"/><rect height="13.698" rx="5.862" style="fill:#fff" width="11.724" x="214.353" y="150.999"/><path d="M241.442,39.77H135.792c-9.926,1.237-16.132,7.856-12.253,21.282H260.365l-2.64-9.065A16.959,16.959,0,0,0,241.442,39.77Z" style="fill:#666689"/><path d="M233.644,39.77H135.792Q129.627,15.392,151.924,10h51.949a29.771,29.771,0,0,1,29.771,29.77Z" style="fill:#b9b9da"/><path d="M135.792,39.77H92.009A16.96,16.96,0,0,0,75.726,51.987l-2.64,9.065h50.453C122.544,43.433,135.792,39.77,135.792,39.77Z" style="fill:#3d4165"/><path d="M151.924,10H129.578a29.769,29.769,0,0,0-29.77,29.77h35.984C135.792,15.345,151.924,10,151.924,10Z" style="fill:#666689"/><path d="M259.452,296.764H106.324c-14.343,1.517-21.711,15.142-16.3,33.236H284.184l-5.965-19.377A19.636,19.636,0,0,0,259.452,296.764Z" style="fill:#b9b9da"/><path d="M240.15,274.076H114.488c-7.642,4.4-10.872,11.635-8.164,22.688H257.482l-4.8-13.787A13.266,13.266,0,0,0,240.15,274.076Z" style="fill:#666689"/><path d="M106.324,296.764H74a19.636,19.636,0,0,0-18.767,13.859L49.267,330H90.022C90.022,301.112,106.324,296.764,106.324,296.764Z" style="fill:#666689"/><path d="M93.3,274.076a13.267,13.267,0,0,0-12.528,8.9l-4.8,13.787h30.355c0-16.329,8.164-22.688,8.164-22.688Z" style="fill:#3d4165"/></svg>